# xmcd CD database file generated by OrangeCD 6.0
#
# Track frame offsets:
#	150
#	15586
#	34627
#	59050
#	81819
#	93887
#	115831
#	138608
#	157116
#	175926
#	194007
#	209760
#	224205
#	243260
#	266010
#	285098
#	300111
#	313872
#	337638
#
# Disc length: 4711 seconds
#
# Revision: 1
# Processed by: cddbd v1.5.2PL0 Copyright (c) Steve Scherf et al.
# Submitted via: OrangeCD 6.0
#
DISCID=13126513
DTITLE=Bonnie Raitt - Bonnie Raitt 3
DYEAR=1900
DGENRE=Blues
TTITLE0=Anything you want...you got it
TTITLE1=Rich woman blues
TTITLE2=(goin') wild for you baby
TTITLE3=Cold cold cold
TTITLE4=Walking blues
TTITLE5=Tangled and dark
TTITLE6=Not the only one
TTITLE7=Fools Game
TTITLE8=Circle dance
TTITLE9=Burning down the house
TTITLE10=Blue bird
TTITLE11=Baby mine
TTITLE12=Rock steady
TTITLE13=All at once
TTITLE14=About to make me leave home
TTITLE15=Keep this heart in mind
TTITLE16=Mi first night alone without you
TTITLE17=Luck of the draw
TTITLE18=What is success
EXTD=
EXTT0=
EXTT1=
EXTT2=
EXTT3=
EXTT4=
EXTT5=
EXTT6=
EXTT7=
EXTT8=
EXTT9=
EXTT10=
EXTT11=
EXTT12=
EXTT13=
EXTT14=
EXTT15=
EXTT16=
EXTT17=
EXTT18=
PLAYORDER=
